<svg xmlns="http://www.w3.org/2000/svg" width="20" height="20">
    <path fill="#DABB5E" fill-opacity="0" fill-rule="evenodd" d="M0 0h20v20H0V0z"/>
    <path fill="#FA7B26" fill-rule="evenodd" d="M18.587 5.57c-.259-.609-.63-1.157-1.09-1.618-.46-.458-1.008-.833-1.617-1.089-.608-.255-1.277-.399-1.981-.399-.7 0-1.369.176-1.978.488-.608.31-1.156.753-1.616 1.283-.127.147-.248.298-.361.459-.113-.161-.231-.314-.358-.459-.461-.53-1.01-.973-1.616-1.283-.61-.312-1.279-.488-1.982-.488-.702 0-1.373.144-1.979.399-.61.256-1.157.631-1.618 1.089-.461.461-.831 1.009-1.09 1.618-.255.608-.398 1.278-.398 1.978 0 .705.143 1.37.398 1.98.259.607.629 1.158 1.09 1.62.461.455 6.945 6.314 7.553 6.573.607-.259 7.093-6.118 7.553-6.573.46-.462.831-1.013 1.09-1.62.258-.61.401-1.275.401-1.98 0-.7-.143-1.37-.401-1.978z"/>
</svg>
