<svg xmlns="http://www.w3.org/2000/svg" width="24" height="24">
    <path fill="#1A1A1A" fill-opacity="0" fill-rule="evenodd" d="M.031.499h23.281v23.282H.031V.499z" opacity=".2"/>
    <path fill="#00833F" fill-rule="evenodd" d="M.026 2.971C.041 9.494.03 16.015.03 22.537c2.518.013 5.036.013 7.554.004.037-3.235-.047-6.472.042-9.707.826 1.121 1.58 2.29 2.423 3.397 1.408 2.124 3.003 4.13 4.359 6.288 2.533.065 5.068-.001 7.601.038.029-.305.055-.613.055-.918-.038-6.227.03-12.453-.034-18.676-2.511-.018-5.012.005-7.518-.01-.017 3.253.021 6.504-.022 9.754-2.327-3.213-4.528-6.524-6.91-9.7-2.514-.112-5.038-.034-7.554-.036z"/>
</svg>
