<svg xmlns="http://www.w3.org/2000/svg" width="24" height="24">
    <path fill="#1A1A1A" fill-opacity="0" fill-rule="evenodd" d="M.343.718h23.281v23.281H.343V.718z" opacity=".2"/>
    <path fill="#0565BB" fill-rule="evenodd" d="M23.606 12.702c0-5.932-4.939-10.742-11.03-10.742-6.092 0-11.031 4.81-11.031 10.742 0 5.363 4.034 9.807 9.307 10.613v-7.506H8.053v-3.107h2.799v-2.365c0-2.695 1.648-4.181 4.166-4.181 1.208 0 2.471.21 2.471.21v2.643h-1.39c-1.37 0-1.8.828-1.8 1.677v2.016h3.059l-.49 3.108h-2.569v7.505c5.275-.806 9.307-5.25 9.307-10.613z"/>
</svg>
