<svg xmlns="http://www.w3.org/2000/svg" width="355" height="383.5">
    <path fill="#EEE" fill-rule="evenodd" stroke="#111" stroke-width="3" d="M6.5 6.5h318v315H6.5V6.5z"/>
    <path fill="#111" fill-rule="evenodd" d="M22.581 221.965l90.064 7.613c4.862.414 8.72 1.081 11.448 1.708-1.788 2.45-4.465 5.306-7.789 7.42l-29.92 19.068c-6.988 4.455-10.836 6.906-9.214 12.469l1.627 4.891h5.074c1.812 0 3.243-.359 10.23-3.993l31.686-16.492c5.253-2.73 9.964-4.148 12.799-4.468.908 3.257 1.787 10.236-.879 15.357l-16.843 32.365c-3.62 6.953-5.27 10.125-2.95 13.94l2.071 3.303h3.848c4.325 0 6.102-2.788 10.398-9.526l19.726-30.96c2.078-3.256 4.024-5.929 5.66-7.97 1.165 2.936 2.316 6.785 2.657 10.795l7.771 91.938c.529 6.273 1.19 14.082 8.459 14.082 7.27 0 7.934-7.806 8.465-14.082l7.772-91.935c.36-4.253.892-7.808 1.441-10.532 2.236 1.855 4.805 4.465 6.869 7.701l19.732 30.966c4.296 6.735 6.081 9.523 10.452 9.523l3.899-.061 1.987-3.283c2.303-3.774.647-6.946-2.97-13.899l-16.843-32.361c-2.882-5.542-4-9.936-4.418-12.084 1.489-.367 3.839-.771 6.795-.771 2.633 0 6.425.339 9.543 1.959l31.692 16.495c6.936 3.613 8.446 3.993 10.284 3.993h.007l5.245-.097 1.428-4.916c1.583-5.441-2.262-7.892-9.253-12.347l-29.92-19.061c-3.402-2.171-6.143-4.222-8.163-5.912 3.117-1.401 7.367-2.845 11.819-3.223l90.067-7.613c6.276-.529 14.081-1.189 14.081-8.462s-7.805-7.933-14.081-8.461l-90.067-7.616c-4.855-.411-8.714-1.08-11.442-1.708 1.791-2.454 4.465-5.309 7.786-7.423l29.92-19.069c6.991-4.455 10.836-6.905 9.213-12.464l-1.629-4.896h-5.072c-1.771 0-3.273.377-10.223 3.997l-31.692 16.489c-5.253 2.733-9.961 4.151-12.795 4.471-.909-3.256-1.792-10.236.875-15.357l16.843-32.375c3.617-6.943 5.259-10.112 2.95-13.94l-2.075-3.296h-3.845c-4.33 0-6.108 2.787-10.398 9.525l-19.725 30.961c-2.078 3.256-4.024 5.933-5.661 7.97-1.165-2.94-2.316-6.789-2.656-10.792l-7.772-91.945c-.531-6.269-1.195-14.071-8.465-14.071-7.269 0-7.93 7.804-8.459 14.078l-7.771 91.935c-.364 4.255-.895 7.812-1.445 10.532-2.229-1.852-4.801-4.461-6.865-7.7l-19.735-30.968c-4.294-6.738-6.071-9.525-10.443-9.525l-3.899.054-1.997 3.289c-2.296 3.772-.646 6.943 2.974 13.896l16.843 32.372c2.653 5.09 1.808 12.262 1.02 15.371-2.818-.287-7.59-1.708-12.927-4.482l-31.702-16.492c-6.943-3.617-8.449-3.997-10.287-3.997h-.004l-5.238.098-1.435 4.919c-1.586 5.438 2.262 7.888 9.25 12.337l29.92 19.078c3.408 2.168 6.152 4.215 8.166 5.902-3.114 1.404-7.371 2.849-11.822 3.226l-90.067 7.616c-6.273.528-14.082 1.188-14.082 8.461 0 7.273 7.809 7.933 14.082 8.462z"/>
    <path fill="#FFF" fill-rule="evenodd" stroke="#111" stroke-width="3" d="M6.5 6.5h342v38H6.5v-38z"/>
</svg>
