<svg xmlns="http://www.w3.org/2000/svg" width="130" height="130">
    <path fill="#111" fill-rule="evenodd" d="M65 .249c35.76 0 64.749 28.989 64.749 64.751 0 35.759-28.989 64.749-64.749 64.749C29.239 129.749.25 100.759.25 65 .25 29.238 29.239.249 65 .249z"/>
    <path fill="#FFF" fill-rule="evenodd" d="M45.577 79.698L64.99 98.853 95.988 68.27c6.025-5.962 6.025-15.666-.005-21.631-6.047-5.961-15.887-5.964-21.936.004v.003l-9.057 8.935-9.057-8.938c-6.047-5.953-15.882-5.958-21.936.003-2.923 2.885-4.537 6.729-4.537 10.815 0 4.081 1.614 7.92 4.541 10.804l11.592 11.43-.016.003z"/>
</svg>
